<!--?xml version="1.0" encoding="UTF-8" standalone="no" ?--><svg xmlns="http://www.w3.org/2000/svg" xmlns:xlink="http://www.w3.org/1999/xlink" version="1.1" width="1300" height="300" viewBox="-69.5 84.5 1300 300" xml:space="preserve">
<desc/>
<defs>
</defs>

<g transform="matrix(1 0 0 1 580.5 234.5)" id="workarea">
<rect style="stroke: none; stroke-width: 0; stroke-dasharray: none; stroke-linecap: butt; stroke-dashoffset: 0; stroke-linejoin: miter; stroke-miterlimit: 4; fill: rgb(255,255,255); fill-rule: nonzero; opacity: 1;" x="-650" y="-150" rx="0" ry="0" width="1300" height="300"/>
</g>
<g transform="matrix(1.598 0 0 1.598 453.321 234.5)" id="b5541d2a-6ac7-4cc7-a6d8-9436480137ba">
<g style="" vector-effect="non-scaling-stroke">
		<g transform="matrix(1.917 0 0 1.917 -140.852 52.51)" id="00194dc0-de49-49eb-851d-0e4f2c6be174">
<rect style="stroke: rgb(45,42,42); stroke-width: 1; stroke-dasharray: none; stroke-linecap: butt; stroke-dashoffset: 0; stroke-linejoin: miter; stroke-miterlimit: 4; fill: rgb(45,42,42); fill-rule: nonzero; opacity: 1;" vector-effect="non-scaling-stroke" x="-5.985" y="-5.685" rx="0" ry="0" width="11.97" height="11.37"/>
</g>
		<g transform="matrix(1.917 0 0 1.917 -112.805 52.51)" id="1529799c-44fb-4914-ab1d-2c436b71944d">
<rect style="stroke: rgb(45,42,42); stroke-width: 1; stroke-dasharray: none; stroke-linecap: butt; stroke-dashoffset: 0; stroke-linejoin: miter; stroke-miterlimit: 4; fill: rgb(45,42,42); fill-rule: nonzero; opacity: 1;" vector-effect="non-scaling-stroke" x="-5.985" y="-5.685" rx="0" ry="0" width="11.97" height="11.37"/>
</g>
		<g transform="matrix(1.917 0 0 1.917 28.631 57.147)" id="87f0914b-7090-43d7-9cff-3d90ae00e5ef">
<rect style="stroke: rgb(45,42,42); stroke-width: 1; stroke-dasharray: none; stroke-linecap: butt; stroke-dashoffset: 0; stroke-linejoin: miter; stroke-miterlimit: 4; fill: rgb(45,42,42); fill-rule: nonzero; opacity: 1;" vector-effect="non-scaling-stroke" x="-5.985" y="-5.685" rx="0" ry="0" width="11.97" height="11.37"/>
</g>
		<g transform="matrix(1.917 0 0 1.917 0.566 57.147)" id="f9913646-cf69-4785-aabb-caa2da7c240e">
<rect style="stroke: rgb(45,42,42); stroke-width: 1; stroke-dasharray: none; stroke-linecap: butt; stroke-dashoffset: 0; stroke-linejoin: miter; stroke-miterlimit: 4; fill: rgb(45,42,42); fill-rule: nonzero; opacity: 1;" vector-effect="non-scaling-stroke" x="-5.985" y="-5.685" rx="0" ry="0" width="11.97" height="11.37"/>
</g>
		<g transform="matrix(1 0 0 1 0 0)" id="fdc04e67-5ca1-4afa-8ba1-0d8dc83da10c">
<g style="" vector-effect="non-scaling-stroke">
		<g transform="matrix(1.917 0 0 1.917 -167.056 -41.158)" id="a95534d0-1f38-49c8-8572-537b73df57d2">
<rect style="stroke: rgb(45,42,42); stroke-width: 1; stroke-dasharray: none; stroke-linecap: butt; stroke-dashoffset: 0; stroke-linejoin: miter; stroke-miterlimit: 4; fill: rgb(45,42,42); fill-rule: nonzero; opacity: 1;" vector-effect="non-scaling-stroke" x="-5.985" y="-5.685" rx="0" ry="0" width="11.97" height="11.37"/>
</g>
		<g transform="matrix(1.917 0 0 1.917 -198.467 14.818)" id="b464e24e-1899-469b-b8dc-5b5debe93666">
<path style="stroke: rgb(45,42,42); stroke-width: 1; stroke-dasharray: none; stroke-linecap: butt; stroke-dashoffset: 0; stroke-linejoin: miter; stroke-miterlimit: 4; fill: rgb(45,42,42); fill-rule: nonzero; opacity: 1;" vector-effect="non-scaling-stroke" transform=" translate(-48.98, -157.665)" d="M 96.15 161 C 97.2 159.31 97.8 157.33 97.96 155.07 L 97.96 138.62 L 85.99 138.62 L 85.75 154.22 C 85.75 154.87 85.57 155.39 85.21 155.79 C 84.85 156.19 84.44 156.52 84 156.76 C 83.56 157 83.07 157.18 82.55 157.3 C 82.02 157.42 81.56 157.48 81.16 157.48 L 75.96 157.48 C 75.48 157.48 74.93 157.36 74.33 157.12 C 73.73 156.88 73.26 156.52 72.94 156.03 C 71.89 154.9 71.37 153.25 71.37 151.07 L 71.37 138.61 L 59.4 138.61 L 59.4 152.88 C 58.92 154.57 58.23 155.78 57.34 156.51 C 56.69 157.16 55.89 157.48 54.92 157.48 L 45.12 157.48 L 45.12 157 C 45.12 153.69 44.59 150.27 43.55 146.72 C 42.5 143.01 40.95 139.63 38.89 136.56 C 36.83 133.5 34.35 130.96 31.45 128.94 C 28.55 126.93 25.32 125.92 21.77 125.92 C 19.19 125.92 16.71 126.55 14.33 127.79 C 11.95 129.04 9.81 130.69 7.92 132.75 C 6.02 134.81 4.41 137.12 3.08 139.7 C 1.75 142.28 0.84 144.94 0.36 147.68 C 0.12 148.97 0 150.26 0 151.55 C 0 153.41 0.28 155.14 0.85 156.75 C 1.74 159.57 3.19 161.93 5.2 163.83 C 7.21 165.73 9.71 167.16 12.7 168.12 C 15.28 169.01 18.02 169.45 20.92 169.45 L 30.84 169.45 C 29.31 171.79 27.49 173.58 25.4 174.83 C 23.3 176.08 20.93 177.19 18.26 178.16 L 22.37 189.41 C 27.05 187.72 31.18 185.1 34.77 181.55 C 38.36 178 41 173.97 42.69 169.46 L 55.03 169.46 C 56.8 169.46 58.5 169.14 60.11 168.49 C 61.96 167.93 63.66 166.96 65.19 165.59 L 65.31 165.47 C 66.84 166.84 68.53 167.85 70.39 168.49 C 72 169.05 73.61 169.35 75.23 169.43 L 75.23 169.46 L 81.28 169.46 C 83.05 169.46 84.87 169.14 86.72 168.49 C 88.82 167.85 90.71 166.84 92.4 165.47 C 93.85 164.18 95.1 162.69 96.15 161 Z M 33.62 157.49 L 21.53 157.49 C 20.32 157.49 19.13 157.37 17.96 157.13 C 16.79 156.89 15.76 156.55 14.88 156.1 C 13.99 155.66 13.27 155.07 12.7 154.35 C 12.14 153.62 11.85 152.74 11.85 151.69 C 11.85 150.32 12.17 148.83 12.82 147.21 C 13.46 145.6 14.29 144.11 15.3 142.74 C 16.31 141.37 17.38 140.24 18.51 139.35 C 19.64 138.46 20.73 138.02 21.78 138.02 C 23.47 138.02 25.06 138.75 26.56 140.2 C 28.05 141.65 29.34 143.41 30.43 145.46 C 31.52 147.52 32.38 149.63 33.03 151.81 C 33.51 153.58 33.76 155.12 33.76 156.41 C 33.76 156.81 33.72 157.18 33.64 157.5 Z" stroke-linecap="round"/>
</g>
		<g transform="matrix(1.917 0 0 1.917 -82.095 28.995)" id="3733f349-fa91-4b99-986e-4bf0a3ac7836">
<path style="stroke: rgb(45,42,42); stroke-width: 1; stroke-dasharray: none; stroke-linecap: butt; stroke-dashoffset: 0; stroke-linejoin: miter; stroke-miterlimit: 4; fill: rgb(45,42,42); fill-rule: nonzero; opacity: 1;" vector-effect="non-scaling-stroke" transform=" translate(-109.685, -165.06)" d="M 110.18 172.49 C 110.18 174.42 109.86 175.96 109.21 177.09 C 108.56 178.22 107.6 178.78 106.31 178.78 C 105.58 178.78 104.94 178.58 104.37 178.18 L 97.23 187.86 C 100.13 189.87 103.16 190.88 106.3 190.88 C 108.23 190.88 110.15 190.48 112.04 189.67 C 113.93 188.86 115.63 187.69 117.12 186.16 C 118.61 184.63 119.82 182.71 120.75 180.42 C 121.68 178.12 122.14 175.48 122.14 172.5 L 122.14 139.24 L 110.17 139.24 L 110.17 172.5 Z" stroke-linecap="round"/>
</g>
		<g transform="matrix(1.917 0 0 1.917 89.592 -39.989)" id="cff5e9a2-5e06-4051-b617-91d7cd570ed4">
<rect style="stroke: rgb(45,42,42); stroke-width: 1; stroke-dasharray: none; stroke-linecap: butt; stroke-dashoffset: 0; stroke-linejoin: miter; stroke-miterlimit: 4; fill: rgb(45,42,42); fill-rule: nonzero; opacity: 1;" vector-effect="non-scaling-stroke" x="-5.985" y="-5.685" rx="0" ry="0" width="11.97" height="11.37"/>
</g>
		<g transform="matrix(1.917 0 0 1.917 61.546 -39.989)" id="9306eaab-4d79-47ae-8d0c-8184fb7ce38c">
<rect style="stroke: rgb(45,42,42); stroke-width: 1; stroke-dasharray: none; stroke-linecap: butt; stroke-dashoffset: 0; stroke-linejoin: miter; stroke-miterlimit: 4; fill: rgb(45,42,42); fill-rule: nonzero; opacity: 1;" vector-effect="non-scaling-stroke" x="-5.985" y="-5.685" rx="0" ry="0" width="11.97" height="11.37"/>
</g>
		<g transform="matrix(1.917 0 0 1.917 77.965 -20.522)" id="e5e197af-48dc-4803-89f7-b67d1ad6f8ca">
<path style="stroke: rgb(45,42,42); stroke-width: 1; stroke-dasharray: none; stroke-linecap: butt; stroke-dashoffset: 0; stroke-linejoin: miter; stroke-miterlimit: 4; fill: rgb(45,42,42); fill-rule: nonzero; opacity: 1;" vector-effect="non-scaling-stroke" transform=" translate(-193.18, -139.23)" d="M 248.17 151.08 C 248.17 153.5 247.77 155.17 246.96 156.1 C 246.15 157.03 245.31 157.49 244.42 157.49 C 243.29 157.49 242.28 156.95 241.4 155.86 C 240.51 154.77 240.07 153.18 240.07 151.08 L 240.07 132.46 L 228.1 132.46 L 228.1 151.08 C 228.1 153.26 227.62 154.89 226.65 155.98 C 225.68 157.07 224.75 157.61 223.87 157.61 C 222.74 157.61 221.81 157.05 221.09 155.92 C 220.36 154.79 220 153.18 220 151.08 L 220 132.46 L 207.91 132.46 L 207.91 151.08 C 207.91 152.94 207.41 154.47 206.4 155.68 C 205.45 156.81 204.02 157.41 202.12 157.48 C 201.69 157.45 201.23 157.34 200.72 157.13 C 200.12 156.89 199.65 156.53 199.33 156.04 C 198.28 154.91 197.76 153.26 197.76 151.08 L 197.76 138.62 L 185.79 138.62 L 185.79 152.89 C 185.31 154.58 184.62 155.79 183.73 156.52 C 183.08 157.17 182.28 157.49 181.31 157.49 L 174.42 157.49 C 173.94 157.49 173.39 157.37 172.79 157.13 C 172.19 156.89 171.72 156.53 171.4 156.04 C 170.35 154.91 169.83 153.26 169.83 151.08 L 169.83 138.62 L 157.86 138.62 L 157.86 152.89 C 157.38 154.58 156.69 155.79 155.8 156.52 C 155.15 157.17 154.35 157.49 153.38 157.49 L 145.16 157.49 C 143.23 157.49 141.57 156.81 140.2 155.43 C 138.83 154.06 138.14 152.41 138.14 150.47 L 138.14 108.99 L 126.17 108.99 L 126.17 150.47 C 126.17 153.13 126.67 155.59 127.68 157.85 C 128.69 160.11 130.04 162.1 131.73 163.84 C 133.42 165.57 135.42 166.94 137.72 167.95 C 140.02 168.96 142.5 169.46 145.16 169.46 L 153.51 169.46 C 155.28 169.46 156.98 169.14 158.59 168.49 C 160.44 167.93 162.14 166.96 163.67 165.59 L 163.79 165.47 C 165.32 166.84 167.01 167.85 168.87 168.49 C 170.52 169.07 172.17 169.37 173.83 169.43 L 173.83 169.46 L 181.45 169.46 C 183.22 169.46 184.92 169.14 186.53 168.49 C 188.38 167.93 190.08 166.96 191.61 165.59 L 191.73 165.47 C 193.26 166.84 194.95 167.85 196.81 168.49 C 198.46 169.07 200.11 169.37 201.77 169.43 L 201.77 169.46 C 201.88 169.46 201.99 169.45 202.09 169.45 C 202.18 169.45 202.28 169.46 202.37 169.46 L 202.37 169.44 C 204.28 169.38 206.23 169.08 208.24 168.5 C 210.46 167.86 212.25 166.85 213.62 165.48 C 214.99 166.77 216.56 167.76 218.34 168.44 C 220.11 169.13 221.85 169.47 223.54 169.47 C 227.41 169.47 230.92 168.14 234.06 165.48 C 235.51 166.69 237.12 167.66 238.9 168.38 C 240.67 169.11 242.49 169.47 244.34 169.47 C 246.35 169.47 248.31 169.09 250.21 168.32 C 252.1 167.55 253.8 166.41 255.29 164.87 C 256.78 163.34 257.97 161.44 258.86 159.19 C 259.75 156.93 260.19 154.23 260.19 151.09 L 260.19 132.47 L 248.22 132.47 L 248.22 151.09 Z" stroke-linecap="round"/>
</g>
		<g transform="matrix(1.917 0 0 1.917 252.488 -4.314)" id="d30d681c-2223-43b5-9542-1779e44d87f3">
<path style="stroke: rgb(45,42,42); stroke-width: 1; stroke-dasharray: none; stroke-linecap: butt; stroke-dashoffset: 0; stroke-linejoin: miter; stroke-miterlimit: 4; fill: rgb(45,42,42); fill-rule: nonzero; opacity: 1;" vector-effect="non-scaling-stroke" transform=" translate(-284.22, -147.685)" d="M 303.2 142.8 C 301.99 139.78 300.4 137.02 298.42 134.52 C 296.44 132.02 294.13 129.97 291.47 128.35 C 288.81 126.74 286.03 125.93 283.13 125.93 L 283.13 138.02 C 284.18 138.02 285.27 138.44 286.4 139.29 C 287.53 140.14 288.56 141.22 289.48 142.56 C 290.41 143.89 291.19 145.34 291.84 146.91 C 292.48 148.48 292.89 149.95 293.05 151.32 C 293.05 152.53 292.77 153.52 292.2 154.28 C 291.64 155.05 290.89 155.67 289.96 156.15 C 289.03 156.63 287.96 156.98 286.76 157.18 C 285.55 157.38 284.3 157.48 283.01 157.48 C 280.99 157.48 279.12 157.18 277.39 156.57 C 275.65 155.97 274.47 155.14 273.82 154.09 L 263.42 160.14 C 264.31 161.75 265.46 163.12 266.87 164.25 C 268.28 165.38 269.87 166.33 271.65 167.09 C 273.42 167.86 275.3 168.44 277.27 168.84 C 279.24 169.24 281.28 169.44 283.38 169.44 C 286.85 169.44 289.93 168.98 292.63 168.05 C 295.33 167.12 297.61 165.83 299.46 164.18 C 301.31 162.53 302.7 160.63 303.63 158.5 C 304.56 156.36 305.02 154.05 305.02 151.55 C 305.02 148.73 304.42 145.81 303.21 142.78 Z" stroke-linecap="round"/>
</g>
</g>
</g>
</g>
</g>
<g transform="matrix(0.8 0 0 0.8 1069.02 234.435)" id="1508e083-35ce-4f78-8d50-87ffb024e6ac">
<g style="" vector-effect="non-scaling-stroke">
		<g transform="matrix(1.265 0 0 1.265 80.163 80.069)" id="5269dcf1-52d6-4a9c-9907-0bb6ef8926bd">
<g style="" vector-effect="non-scaling-stroke">
		<g transform="matrix(1 0 0 1 0 0)" id="2a4a8e8a-7c4e-4895-a305-b8b7b341014a">
<path style="stroke: rgb(45,42,42); stroke-width: 1; stroke-dasharray: none; stroke-linecap: butt; stroke-dashoffset: 0; stroke-linejoin: miter; stroke-miterlimit: 4; fill: rgb(45,42,42); fill-rule: nonzero; opacity: 1;" vector-effect="non-scaling-stroke" transform=" translate(-380.05, -180.8)" d="M 380.05 126.23 L 325.48 126.23 L 325.48 180.8 C 325.48 210.93 349.91 235.37 380.05 235.37 C 410.18 235.37 434.62 210.94 434.62 180.8 C 434.62 150.66 410.19 126.23 380.05 126.23 Z M 380.05 155.68 C 393.92 155.68 405.17 166.92 405.17 180.8 C 405.17 194.68 393.93 205.92 380.05 205.92 C 366.18 205.92 354.93 194.68 354.93 180.8 C 354.93 166.93 366.17 155.68 380.05 155.68 Z" stroke-linecap="round"/>
</g>
		<g transform="matrix(1 0 0 1 -24.632 -0.623)" id="dbe31206-a29b-4a7c-a30d-6e35d7157304">
<path style="stroke: rgb(45,42,42); stroke-width: 1; stroke-dasharray: none; stroke-linecap: butt; stroke-dashoffset: 0; stroke-linejoin: miter; stroke-miterlimit: 4; fill: rgb(45,42,42); fill-rule: nonzero; opacity: 1;" vector-effect="non-scaling-stroke" transform=" translate(-355.418, -180.177)" d="M 325.48 180.8 L 325.48 126.23 C 325.48 126.23 362.28 163.03 362.28 163.03 C 357.74 167.57 354.93 173.85 354.93 180.79 C 354.93 192.33 362.72 202.06 373.32 204.99 C 393.89 210.71 386 239.08 365.43 233.37 C 342.39 226.98 325.47 205.86 325.48 180.79 Z" stroke-linecap="round"/>
</g>
		<g transform="matrix(1 0 0 1 -5.58 -32.868)" id="_Radial_Repeat_">
<path style="stroke: rgb(45,42,42); stroke-width: 1; stroke-dasharray: none; stroke-linecap: butt; stroke-dashoffset: 0; stroke-linejoin: miter; stroke-miterlimit: 4; fill: rgb(45,42,42); fill-rule: nonzero; opacity: 1;" vector-effect="non-scaling-stroke" transform=" translate(-374.47, -147.932)" d="M 418.79 142.37 C 408.9 132.41 395.2 126.23 380.05 126.23 L 325.48 126.23 C 325.48 168.03 347.23 178.09 362.28 163.03 C 366.82 158.49 373.1 155.68 380.04 155.68 C 387.08 155.68 393.45 158.58 398 163.24 C 412.06 177.24 432.84 156.36 418.78 142.36 Z" stroke-linecap="round"/>
</g>
</g>
</g>
		<g transform="matrix(1.265 0 0 1.265 80.163 -81.679)" id="b0a864ee-1fb6-4d45-a736-d25802fa2ecb">
<g style="" vector-effect="non-scaling-stroke">
		<g transform="matrix(1 0 0 1 0 0)" id="dee97dc4-40db-4282-a0d8-931dcbc56299">
<path style="stroke: rgb(45,42,42); stroke-width: 1; stroke-dasharray: none; stroke-linecap: butt; stroke-dashoffset: 0; stroke-linejoin: miter; stroke-miterlimit: 4; fill: rgb(45,42,42); fill-rule: nonzero; opacity: 1;" vector-effect="non-scaling-stroke" transform=" translate(-380.05, -54.57)" d="M 325.48 54.57 L 325.48 109.14 L 380.05 109.14 C 410.18 109.14 434.62 84.71 434.62 54.57 C 434.62 24.44 410.19 0 380.05 0 C 349.91 0 325.48 24.43 325.48 54.57 Z M 354.93 54.57 C 354.93 40.7 366.17 29.45 380.05 29.45 C 393.93 29.45 405.17 40.69 405.17 54.57 C 405.17 68.44 393.93 79.69 380.05 79.69 C 366.18 79.69 354.93 68.45 354.93 54.57 Z" stroke-linecap="round"/>
</g>
		<g transform="matrix(1 0 0 1 -0.623 24.621)" id="f9bd7a70-9cb3-436b-854f-706dfd2c654a">
<path style="stroke: rgb(45,42,42); stroke-width: 1; stroke-dasharray: none; stroke-linecap: butt; stroke-dashoffset: 0; stroke-linejoin: miter; stroke-miterlimit: 4; fill: rgb(45,42,42); fill-rule: nonzero; opacity: 1;" vector-effect="non-scaling-stroke" transform=" translate(-379.427, -79.192)" d="M 380.05 109.13 L 325.48 109.13 C 325.48 109.13 362.28 72.33 362.28 72.33 C 366.82 76.87 373.1 79.68 380.04 79.68 C 391.58 79.68 401.31 71.89 404.24 61.29 C 409.96 40.72 438.33 48.61 432.62 69.18 C 426.23 92.22 405.11 109.14 380.04 109.13 Z" stroke-linecap="round"/>
</g>
		<g transform="matrix(1 0 0 1 -32.868 5.58)" id="_Radial_Repeat_-2">
<path style="stroke: rgb(45,42,42); stroke-width: 1; stroke-dasharray: none; stroke-linecap: butt; stroke-dashoffset: 0; stroke-linejoin: miter; stroke-miterlimit: 4; fill: rgb(45,42,42); fill-rule: nonzero; opacity: 1;" vector-effect="non-scaling-stroke" transform=" translate(-347.182, -60.15)" d="M 341.62 15.83 C 331.66 25.72 325.48 39.42 325.48 54.57 L 325.48 109.14 C 367.28 109.14 377.34 87.39 362.28 72.34 C 357.74 67.8 354.93 61.52 354.93 54.58 C 354.93 47.54 357.83 41.17 362.49 36.62 C 376.49 22.56 355.61 1.78 341.61 15.84 Z" stroke-linecap="round"/>
</g>
</g>
</g>
		<g transform="matrix(1.265 0 0 1.265 -79.472 -81.679)" id="812f905d-aa14-4ba2-88cd-cdcca8fc99ef">
<g style="" vector-effect="non-scaling-stroke">
		<g transform="matrix(1 0 0 1 0 0)" id="fd89eb78-8f81-462f-a26e-fb4abfcbafe5">
<path style="stroke: rgb(45,42,42); stroke-width: 1; stroke-dasharray: none; stroke-linecap: butt; stroke-dashoffset: 0; stroke-linejoin: miter; stroke-miterlimit: 4; fill: rgb(45,42,42); fill-rule: nonzero; opacity: 1;" vector-effect="non-scaling-stroke" transform=" translate(-253.82, -54.57)" d="M 253.82 109.13 L 308.39 109.13 C 308.39 109.13 308.39 54.56 308.39 54.56 C 308.38 24.43 283.95 0 253.82 0 C 223.68 0 199.25 24.43 199.25 54.57 C 199.25 84.71 223.68 109.14 253.82 109.14 Z M 253.82 79.68 C 239.95 79.68 228.7 68.44 228.7 54.56 C 228.7 40.68 239.94 29.44 253.82 29.44 C 267.69 29.44 278.94 40.68 278.94 54.56 C 278.94 68.43 267.7 79.68 253.82 79.68 Z" stroke-linecap="round"/>
</g>
		<g transform="matrix(1 0 0 1 24.621 0.612)" id="323705ca-5fab-44c1-9746-9a406e046de4">
<path style="stroke: rgb(45,42,42); stroke-width: 1; stroke-dasharray: none; stroke-linecap: butt; stroke-dashoffset: 0; stroke-linejoin: miter; stroke-miterlimit: 4; fill: rgb(45,42,42); fill-rule: nonzero; opacity: 1;" vector-effect="non-scaling-stroke" transform=" translate(-278.442, -55.183)" d="M 308.38 54.56 L 308.38 109.13 C 308.38 109.13 271.58 72.33 271.58 72.33 C 276.12 67.79 278.93 61.51 278.93 54.57 C 278.93 43.03 271.14 33.3 260.54 30.37 C 239.97 24.65 247.86 -3.72 268.43 1.99 C 291.47 8.38 308.39 29.5 308.38 54.57 Z" stroke-linecap="round"/>
</g>
		<g transform="matrix(1 0 0 1 5.579 32.859)" id="_Radial_Repeat_-3">
<path style="stroke: rgb(45,42,42); stroke-width: 1; stroke-dasharray: none; stroke-linecap: butt; stroke-dashoffset: 0; stroke-linejoin: miter; stroke-miterlimit: 4; fill: rgb(45,42,42); fill-rule: nonzero; opacity: 1;" vector-effect="non-scaling-stroke" transform=" translate(-259.4, -87.428)" d="M 215.08 92.99 C 224.97 102.95 238.67 109.13 253.82 109.13 L 308.39 109.13 C 308.39 67.33 286.64 57.27 271.59 72.33 C 267.05 76.87 260.77 79.68 253.83 79.68 C 246.79 79.68 240.42 76.78 235.87 72.12 C 221.81 58.12 201.03 79 215.09 93 Z" stroke-linecap="round"/>
</g>
</g>
</g>
		<g transform="matrix(0 1.265 -1.265 0 -80.295 81.812)" id="34f6a31c-d4cb-43bb-a3be-50b872003a2d">
<path style="stroke: rgb(45,42,42); stroke-width: 1; stroke-dasharray: none; stroke-linecap: butt; stroke-dashoffset: 0; stroke-linejoin: miter; stroke-miterlimit: 4; fill: rgb(45,42,42); fill-rule: nonzero; opacity: 1;" vector-effect="non-scaling-stroke" transform=" translate(-380.05, -180.8)" d="M 380.05 126.23 L 325.48 126.23 L 325.48 180.8 C 325.48 210.93 349.91 235.37 380.05 235.37 C 410.18 235.37 434.62 210.94 434.62 180.8 C 434.62 150.66 410.19 126.23 380.05 126.23 Z M 380.05 155.68 C 393.92 155.68 405.17 166.92 405.17 180.8 C 405.17 194.68 393.93 205.92 380.05 205.92 C 366.18 205.92 354.93 194.68 354.93 180.8 C 354.93 166.93 366.17 155.68 380.05 155.68 Z" stroke-linecap="round"/>
</g>
</g>
</g>
</svg>